<svg width="12" height="18" viewBox="0 0 12 18" fill="none" xmlns="http://www.w3.org/2000/svg">
<path d="M1.99996 15.6667C1.80218 15.6667 1.60884 15.7253 1.44439 15.8352C1.27994 15.9451 1.15177 16.1013 1.07608 16.284C1.00039 16.4667 0.980589 16.6678 1.01917 16.8618C1.05776 17.0557 1.153 17.2339 1.29285 17.3738C1.4327 17.5136 1.61089 17.6089 1.80487 17.6475C1.99885 17.686 2.19992 17.6662 2.38264 17.5905C2.56537 17.5149 2.72155 17.3867 2.83143 17.2222C2.94131 17.0578 2.99996 16.8644 2.99996 16.6667C3.00029 16.5353 2.97465 16.4051 2.92451 16.2836C2.87437 16.1621 2.80073 16.0517 2.7078 15.9588C2.61488 15.8659 2.50451 15.7923 2.38303 15.7421C2.26156 15.692 2.13137 15.6663 1.99996 15.6667ZM1.99996 11.6667C1.80218 11.6667 1.60884 11.7253 1.44439 11.8352C1.27994 11.9451 1.15177 12.1013 1.07608 12.284C1.00039 12.4667 0.980589 12.6678 1.01917 12.8618C1.05776 13.0557 1.153 13.2339 1.29285 13.3738C1.4327 13.5136 1.61089 13.6089 1.80487 13.6475C1.99885 13.686 2.19992 13.6662 2.38264 13.5905C2.56537 13.5149 2.72155 13.3867 2.83143 13.2222C2.94131 13.0578 2.99996 12.8644 2.99996 12.6667C3.00029 12.5353 2.97465 12.4051 2.92451 12.2836C2.87437 12.1621 2.80073 12.0517 2.7078 11.9588C2.61488 11.8659 2.50451 11.7923 2.38303 11.7421C2.26156 11.692 2.13137 11.6663 1.99996 11.6667ZM1.99996 7.66667C1.80218 7.66667 1.60884 7.72532 1.44439 7.8352C1.27994 7.94508 1.15177 8.10126 1.07608 8.28398C1.00039 8.46671 0.980589 8.66778 1.01917 8.86176C1.05776 9.05574 1.153 9.23392 1.29285 9.37377C1.4327 9.51363 1.61089 9.60887 1.80487 9.64745C1.99885 9.68604 2.19992 9.66623 2.38264 9.59055C2.56537 9.51486 2.72155 9.38669 2.83143 9.22224C2.94131 9.05779 2.99996 8.86445 2.99996 8.66667C3.00029 8.53525 2.97465 8.40507 2.92451 8.28359C2.87437 8.16212 2.80073 8.05175 2.7078 7.95883C2.61488 7.8659 2.50451 7.79225 2.38303 7.74212C2.26156 7.69198 2.13137 7.66634 1.99996 7.66667ZM8.66663 2.66667C8.66663 1.95942 8.38567 1.28115 7.88558 0.781049C7.38548 0.280952 6.7072 0 5.99996 0C5.29272 0 4.61444 0.280952 4.11434 0.781049C3.61424 1.28115 3.33329 1.95942 3.33329 2.66667C2.62605 2.66667 1.94777 2.94762 1.44767 3.44772C0.947577 3.94781 0.666626 4.62609 0.666626 5.33333H11.3333C11.3333 4.62609 11.0523 3.94781 10.5522 3.44772C10.0521 2.94762 9.37387 2.66667 8.66663 2.66667ZM5.99996 3.66667C5.80218 3.66667 5.60884 3.60802 5.44439 3.49814C5.27994 3.38825 5.15177 3.23208 5.07608 3.04935C5.00039 2.86662 4.98059 2.66556 5.01917 2.47158C5.05776 2.2776 5.153 2.09941 5.29285 1.95956C5.4327 1.81971 5.61089 1.72447 5.80487 1.68588C5.99885 1.6473 6.19992 1.6671 6.38264 1.74279C6.56537 1.81847 6.72155 1.94665 6.83143 2.1111C6.94131 2.27555 6.99996 2.46889 6.99996 2.66667C7.00029 2.79808 6.97465 2.92827 6.92451 3.04974C6.87437 3.17121 6.80072 3.28158 6.7078 3.37451C6.61488 3.46743 6.50451 3.54108 6.38303 3.59122C6.26156 3.64136 6.13137 3.667 5.99996 3.66667Z" fill="#213F7D"/>
</svg>
