<svg width="10" height="14" viewBox="0 0 10 14" fill="none" xmlns="http://www.w3.org/2000/svg">
<path d="M5.5 0H4.5C4.36739 0 4.24021 0.0526784 4.14645 0.146447C4.05268 0.240215 4 0.367392 4 0.5V3.5C4 3.63261 4.05268 3.75979 4.14645 3.85355C4.24021 3.94732 4.36739 4 4.5 4H5.5C5.63261 4 5.75979 3.94732 5.85355 3.85355C5.94732 3.75979 6 3.63261 6 3.5V0.5C6 0.367392 5.94732 0.240215 5.85355 0.146447C5.75979 0.0526784 5.63261 0 5.5 0ZM9.5 5H8.5C8.36739 5 8.24021 5.05268 8.14645 5.14645C8.05268 5.24021 8 5.36739 8 5.5V8.5C8 8.63261 8.05268 8.75979 8.14645 8.85355C8.24021 8.94732 8.36739 9 8.5 9H9.5C9.63261 9 9.75979 8.94732 9.85355 8.85355C9.94732 8.75979 10 8.63261 10 8.5V5.5C10 5.36739 9.94732 5.24021 9.85355 5.14645C9.75979 5.05268 9.63261 5 9.5 5ZM1.5 10H0.5C0.367392 10 0.240215 10.0527 0.146447 10.1464C0.0526785 10.2402 0 10.3674 0 10.5V13.5C0 13.6326 0.0526785 13.7598 0.146447 13.8536C0.240215 13.9473 0.367392 14 0.5 14H1.5C1.63261 14 1.75979 13.9473 1.85355 13.8536C1.94732 13.7598 2 13.6326 2 13.5V10.5C2 10.3674 1.94732 10.2402 1.85355 10.1464C1.75979 10.0527 1.63261 10 1.5 10Z" fill="#213F7D"/>
</svg>
